<?xml version="1.0" encoding="UTF-8" standalone="no"?>
<!-- Created with Inkscape (http://www.inkscape.org/) -->

<svg
   version="1.1"
   id="svg25"
   xml:space="preserve"
   width="212.90056"
   height="151.29941"
   viewBox="0 0 212.90056 151.29941"
   sodipodi:docname="logo.svg"
   inkscape:version="1.1.2 (0a00cf5339, 2022-02-04)"
   xmlns:inkscape="http://www.inkscape.org/namespaces/inkscape"
   xmlns:sodipodi="http://sodipodi.sourceforge.net/DTD/sodipodi-0.dtd"
   xmlns="http://www.w3.org/2000/svg"
   xmlns:svg="http://www.w3.org/2000/svg"><defs
     id="defs29"><clipPath
       clipPathUnits="userSpaceOnUse"
       id="clipPath51"><path
         d="M 0,500 H 500 V 0 H 0 Z"
         id="path49" /></clipPath><clipPath
       clipPathUnits="userSpaceOnUse"
       id="clipPath89"><path
         d="M 0,500 H 500 V 0 H 0 Z"
         id="path87" /></clipPath><clipPath
       clipPathUnits="userSpaceOnUse"
       id="clipPath131"><path
         d="M 0,500 H 500 V 0 H 0 Z"
         id="path129" /></clipPath><clipPath
       clipPathUnits="userSpaceOnUse"
       id="clipPath181"><path
         d="M 0,500 H 500 V 0 H 0 Z"
         id="path179" /></clipPath></defs><sodipodi:namedview
     id="namedview27"
     pagecolor="#505050"
     bordercolor="#eeeeee"
     borderopacity="1"
     inkscape:pageshadow="0"
     inkscape:pageopacity="0"
     inkscape:pagecheckerboard="0"
     showgrid="false"
     inkscape:zoom="0.80099998"
     inkscape:cx="11.235955"
     inkscape:cy="152.30962"
     inkscape:window-width="1360"
     inkscape:window-height="719"
     inkscape:window-x="0"
     inkscape:window-y="25"
     inkscape:window-maximized="1"
     inkscape:current-layer="g31" /><g
     id="g31"
     inkscape:groupmode="layer"
     inkscape:label="5306135"
     transform="matrix(1.3333333,0,0,-1.3333333,-226.88306,285.43559)"><g
       aria-label="Cachureos"
       transform="scale(1,-1)"
       id="text119"
       style="font-weight:bold;font-size:27.6172px;font-family:Montserrat;-inkscape-font-specification:Montserrat-Bold"><path
         d="m 187.2882,-102.09897 q -1.4294,0.74167 -2.98017,1.11925 -1.55078,0.37758 -3.2364,0.37758 -5.02989,0 -7.96961,-2.80487 -2.93972,-2.81836 -2.93972,-7.63249 0,-4.82761 2.93972,-7.63249 2.93972,-2.81835 7.96961,-2.81835 1.68562,0 3.2364,0.37758 1.55077,0.37757 2.98017,1.11925 v 4.16685 q -1.44289,-0.9844 -2.84533,-1.44289 -1.40243,-0.45849 -2.9532,-0.45849 -2.7779,0 -4.36913,1.78002 -1.59122,1.78001 -1.59122,4.90852 0,3.11503 1.59122,4.89504 1.59123,1.78002 4.36913,1.78002 1.55077,0 2.9532,-0.45849 1.40244,-0.45849 2.84533,-1.44289 z"
         id="path34" /><path
         d="m 198.1436,-107.78962 q -1.51032,0 -2.27896,0.51243 -0.75516,0.51242 -0.75516,1.51031 0,0.91698 0.60682,1.44289 0.62031,0.51243 1.71259,0.51243 1.36198,0 2.29245,-0.97092 0.93046,-0.9844 0.93046,-2.45426 v -0.55288 z m 7.37627,-1.82047 v 8.61689 h -4.86807 v -2.23851 q -0.97092,1.37547 -2.18457,2.00926 -1.21364,0.62031 -2.9532,0.62031 -2.34639,0 -3.81625,-1.36198 -1.45637,-1.37547 -1.45637,-3.56003 0,-2.65654 1.82047,-3.89715 1.83395,-1.24062 5.74459,-1.24062 h 2.84533 v -0.37758 q 0,-1.14622 -0.90349,-1.67213 -0.9035,-0.5394 -2.81836,-0.5394 -1.55077,0 -2.88578,0.31015 -1.33501,0.31016 -2.48124,0.93046 v -3.68139 q 1.55077,-0.37758 3.11503,-0.56637 1.56426,-0.20227 3.12851,-0.20227 4.08594,0 5.89293,1.61819 1.82047,1.60471 1.82047,5.23217 z"
         id="path36" /><path
         d="m 222.21425,-115.62439 v 3.93761 q -0.9844,-0.67424 -1.98229,-0.99788 -0.9844,-0.32364 -2.04971,-0.32364 -2.02275,0 -3.15548,1.18667 -1.11925,1.1732 -1.11925,3.29033 0,2.11714 1.11925,3.30382 1.13273,1.17319 3.15548,1.17319 1.13274,0 2.14411,-0.33712 1.02485,-0.33713 1.88789,-0.99789 v 3.95109 q -1.13273,0.41804 -2.30593,0.62031 -1.1597,0.21576 -2.33289,0.21576 -4.08595,0 -6.39188,-2.09017 -2.30592,-2.10365 -2.30592,-5.83899 0,-3.73533 2.30592,-5.8255 2.30593,-2.10365 6.39188,-2.10365 1.18667,0 2.33289,0.21576 1.15971,0.20227 2.30593,0.6203 z"
         id="path38" /><path
         d="m 241.56517,-110.18995 v 9.19675 h -4.85458 v -1.49683 -5.51535 q 0,-1.98229 -0.0944,-2.72396 -0.0809,-0.74168 -0.29667,-1.09229 -0.28318,-0.47197 -0.76864,-0.72818 -0.48546,-0.2697 -1.10577,-0.2697 -1.51031,0 -2.37335,1.17319 -0.86304,1.1597 -0.86304,3.2229 v 7.43022 h -4.82762 v -20.9826 h 4.82762 v 8.09097 q 1.09228,-1.32152 2.31941,-1.94183 1.22714,-0.63379 2.71048,-0.63379 2.61608,0 3.96458,1.60471 1.36198,1.60471 1.36198,4.66579 z"
         id="path40" /><path
         d="m 245.88036,-106.87265 v -9.22371 h 4.85458 v 1.51032 q 0,1.22713 -0.0135,3.08805 -0.0135,1.84744 -0.0135,2.46775 0,1.82047 0.0944,2.62957 0.0944,0.79561 0.32364,1.1597 0.29667,0.47198 0.76864,0.72819 0.48546,0.25622 1.10577,0.25622 1.51031,0 2.37335,-1.15971 0.86304,-1.15971 0.86304,-3.22291 v -7.45718 h 4.82761 v 15.10316 h -4.82761 v -2.18457 q -1.09228,1.32153 -2.31942,1.95532 -1.21364,0.62031 -2.6835,0.62031 -2.61609,0 -3.99155,-1.60471 -1.36198,-1.60471 -1.36198,-4.6658 z"
         id="path42" /><path
         d="m 276.92274,-111.98345 q -0.6338,-0.29666 -1.26759,-0.43151 -0.62031,-0.14834 -1.2541,-0.14834 -1.86093,0 -2.8723,1.20016 -0.99789,1.18668 -0.99789,3.4117 v 6.95824 h -4.82761 v -15.10316 h 4.82761 v 2.48123 q 0.93047,-1.48334 2.13063,-2.15759 1.21364,-0.68773 2.89926,-0.68773 0.24273,0 0.52592,0.027 0.28318,0.0135 0.82258,0.0809 z"
         id="path44" /><path
         d="m 294.39925,-108.58524 v 1.37547 h -11.28692 q 0.17531,1.69911 1.22714,2.54866 1.05182,0.84955 2.93972,0.84955 1.5238,0 3.11502,-0.445 1.60471,-0.45849 3.29033,-1.37547 v 3.72185 q -1.71259,0.64728 -3.42518,0.97092 -1.71259,0.33712 -3.42518,0.33712 -4.09942,0 -6.37838,-2.07668 -2.26548,-2.09017 -2.26548,-5.85248 0,-3.69488 2.22502,-5.81201 2.23851,-2.11714 6.14914,-2.11714 3.56003,0 5.69066,2.14411 2.14411,2.1441 2.14411,5.7311 z m -4.96247,-1.60471 q 0,-1.37546 -0.8091,-2.21153 -0.79561,-0.84955 -2.09017,-0.84955 -1.40243,0 -2.27895,0.79561 -0.87653,0.78213 -1.09229,2.26547 z"
         id="path46" /><path
         d="m 305.24116,-113.0083 q -1.60471,0 -2.45426,1.1597 -0.83607,1.14623 -0.83607,3.3173 0,2.17108 0.83607,3.33079 0.84955,1.14622 2.45426,1.14622 1.57774,0 2.41381,-1.14622 0.83606,-1.15971 0.83606,-3.33079 0,-2.17107 -0.83606,-3.3173 -0.83607,-1.1597 -2.41381,-1.1597 z m 0,-3.45215 q 3.89715,0 6.08172,2.10365 2.19804,2.10366 2.19804,5.8255 0,3.72185 -2.19804,5.82551 -2.18457,2.10365 -6.08172,2.10365 -3.91064,0 -6.12217,-2.10365 -2.19805,-2.10366 -2.19805,-5.82551 0,-3.72184 2.19805,-5.8255 2.21153,-2.10365 6.12217,-2.10365 z"
         id="path48" /><path
         d="m 328.82635,-115.62439 v 3.66791 q -1.55077,-0.64727 -2.99366,-0.97091 -1.44289,-0.32364 -2.72396,-0.32364 -1.37547,0 -2.04972,0.35061 -0.66076,0.33712 -0.66076,1.05182 0,0.57986 0.49894,0.89001 0.51243,0.31016 1.82047,0.45849 l 0.84956,0.12136 q 3.70836,0.47198 4.98943,1.55078 1.28107,1.07879 1.28107,3.38472 0,2.41381 -1.78001,3.62746 -1.78002,1.21364 -5.31308,1.21364 -1.49683,0 -3.10154,-0.24273 -1.59122,-0.22924 -3.27684,-0.70122 v -3.66791 q 1.44289,0.70122 2.9532,1.05183 1.5238,0.35061 3.08806,0.35061 1.41592,0 2.13062,-0.39106 0.71471,-0.39107 0.71471,-1.15971 0,-0.64728 -0.49895,-0.95743 -0.48546,-0.32364 -1.95532,-0.49895 l -0.84955,-0.10788 q -3.22291,-0.40454 -4.51746,-1.49683 -1.29456,-1.09228 -1.29456,-3.3173 0,-2.40032 1.64517,-3.56003 1.64516,-1.1597 5.04337,-1.1597 1.33501,0 2.80487,0.20227 1.46987,0.20228 3.19594,0.63379 z"
         id="path50" /></g><g
       id="g125"
       transform="translate(113.49281)"><g
         id="g127"
         clip-path="url(#clipPath131)"><g
           id="g133"
           transform="translate(163.0605,135.7881)"><path
             d="m 0,0 h -53.106 c -3.947,0 -7.077,2.883 -6.839,6.299 l 3.642,52.365 H 3.196 L 6.839,6.299 C 7.076,2.883 3.946,0 0,0"
             style="fill:#ffffff;fill-opacity:1;fill-rule:nonzero;stroke:none"
             id="path135" /></g><g
           id="g137"
           transform="translate(109.6377,191.3643)"><path
             d="m 0,0 -3.442,-49.492 c -0.056,-0.795 0.342,-1.403 0.687,-1.771 0.726,-0.778 1.846,-1.225 3.071,-1.225 h 53.107 c 1.225,0 2.345,0.447 3.072,1.225 0.343,0.368 0.742,0.976 0.687,1.771 L 53.739,0 Z M 53.423,-58.663 H 0.316 c -2.931,0 -5.697,1.162 -7.587,3.188 -1.667,1.787 -2.495,4.064 -2.332,6.412 L -5.96,3.302 c 0.112,1.618 1.458,2.873 3.08,2.873 h 59.499 c 1.623,0 2.968,-1.255 3.08,-2.873 l 3.643,-52.365 c 0.163,-2.348 -0.665,-4.625 -2.332,-6.412 -1.89,-2.026 -4.656,-3.188 -7.587,-3.188"
             style="fill:#00af91;fill-opacity:1;fill-rule:nonzero;stroke:none"
             id="path139" /></g><g
           id="g141"
           transform="translate(153.3213,197.2637)"><path
             d="m 0,0 h -6.175 c 0,5.866 -4.773,10.639 -10.639,10.639 -5.866,0 -10.639,-4.773 -10.639,-10.639 h -6.175 c 0,9.271 7.543,16.813 16.814,16.813 C -7.543,16.813 0,9.271 0,0"
             style="fill:#00af91;fill-opacity:1;fill-rule:nonzero;stroke:none"
             id="path143" /></g><g
           id="g145"
           transform="translate(136.5073,152.1533)"><path
             d="m 0,0 c -6.318,0 -12.233,2.98 -15.438,7.777 -0.631,0.946 -0.376,2.224 0.569,2.855 0.945,0.633 2.223,0.377 2.855,-0.569 C -9.564,6.396 -4.96,4.117 0,4.117 c 4.961,0 9.564,2.279 12.014,5.947 0.632,0.946 1.91,1.201 2.855,0.569 0.946,-0.631 1.2,-1.909 0.569,-2.855 C 12.234,2.98 6.318,0 0,0"
             style="fill:#00af91;fill-opacity:1;fill-rule:nonzero;stroke:none"
             id="path147" /></g><g
           id="g149"
           transform="translate(126.4526,180.3643)"><path
             d="m 0,0 c 0,-2.024 -1.642,-3.666 -3.667,-3.666 -2.024,0 -3.666,1.642 -3.666,3.666 0,2.025 1.642,3.667 3.666,3.667 C -1.642,3.667 0,2.025 0,0"
             style="fill:#00af91;fill-opacity:1;fill-rule:nonzero;stroke:none"
             id="path151" /></g><g
           id="g153"
           transform="translate(153.895,180.3643)"><path
             d="m 0,0 c 0,-2.024 -1.642,-3.666 -3.667,-3.666 -2.025,0 -3.666,1.642 -3.666,3.666 0,2.025 1.641,3.667 3.666,3.667 C -1.642,3.667 0,2.025 0,0"
             style="fill:#00af91;fill-opacity:1;fill-rule:nonzero;stroke:none"
             id="path155" /></g><g
           id="g157"
           transform="translate(120.897,157.1299)"><path
             d="m 0,0 c -0.527,0 -1.054,0.2 -1.456,0.603 -0.803,0.803 -0.803,2.107 0,2.911 l 3.774,3.773 c 0.804,0.804 2.107,0.804 2.911,0 0.804,-0.804 0.804,-2.107 0,-2.911 L 1.455,0.603 C 1.053,0.2 0.526,0 0,0"
             style="fill:#00af91;fill-opacity:1;fill-rule:nonzero;stroke:none"
             id="path159" /></g><g
           id="g161"
           transform="translate(152.1201,157.1299)"><path
             d="m 0,0 c -0.527,0 -1.053,0.2 -1.455,0.603 l -3.774,3.773 c -0.804,0.804 -0.804,2.107 0,2.911 0.804,0.804 2.107,0.804 2.911,0 L 1.456,3.514 C 2.26,2.71 2.26,1.406 1.456,0.603 1.054,0.2 0.527,0 0,0"
             style="fill:#00af91;fill-opacity:1;fill-rule:nonzero;stroke:none"
             id="path163" /></g></g></g></g></svg>
